<?xml version="1.0" encoding="UTF-8"?>
<svg width="120px" height="35px" viewBox="0 0 120 35" version="1.1" xmlns="http://www.w3.org/2000/svg" xmlns:xlink="http://www.w3.org/1999/xlink">
    <!-- Generator: Sketch 55.1 (78136) - https://sketchapp.com -->
    <title>logo-tomoissuer</title>
    <desc>Created with Sketch.</desc>
    <defs>
        <polygon id="path-1" points="0 34.9345697 119.991594 34.9345697 119.991594 0 0 0"></polygon>
    </defs>
    <g id="Page-1" stroke="none" stroke-width="1" fill="none" fill-rule="evenodd">
        <g id="Desktop-HD-Copy-2" transform="translate(-135.000000, -12.000000)">
            <g id="logo-tomoissuer" transform="translate(135.000000, 12.000000)">
                <path d="M30.3993222,20.2208886 C30.4973075,19.7653049 30.1468339,19.3356584 29.6807632,19.3356584 L29.460056,19.3356584 C29.1219106,19.3356584 28.8245123,19.5680534 28.7521441,19.8984336 C27.6642989,24.8654249 23.3149993,28.6561921 18.0789486,28.8692141 C10.0146925,29.1971928 3.68431221,21.1062789 7.17567979,12.6837839 C8.23478586,10.1291207 10.2759867,8.09088192 12.8314503,7.03385724 C18.6097825,4.64362375 24.2302495,6.87535157 27.0817505,11.1166591 C27.3010967,11.4429566 27.7403496,11.5347779 28.0732915,11.3258386 L28.2032181,11.2444243 C28.5803496,11.0077065 28.6888219,10.5044109 28.4387352,10.1359253 C25.3029646,5.51604536 19.2935984,2.99748632 12.9995624,5.17269646 C9.44527285,6.40111541 6.64388526,9.14702602 5.37247765,12.6861855 C2.06363175,21.8966458 8.84255103,30.5537772 17.6052728,30.5537772 C23.8767338,30.5537772 29.1311968,26.1189807 30.3993222,20.2208886" id="Fill-1" fill="#01C5DE"></path>
                <path d="M16.6653983,0.018084056 C7.68357038,0.421953302 0.413603736,7.70136624 0.0173395597,16.6835143 C-0.0700787191,18.6642748 0.175765177,20.5765097 0.701555704,22.3704256 C0.8440507,22.8564296 1.39513809,23.0937879 1.85256304,22.876523 C1.85776651,22.8740414 1.86296998,22.8716398 1.86801334,22.8691581 C2.23850033,22.6932809 2.42246298,22.2754823 2.30742628,21.8818599 C1.84071514,20.2860761 1.61688592,18.5879039 1.68781321,16.8276104 C2.01651234,8.67641628 8.60994797,2.04807738 16.7598612,1.69055904 C25.7882001,1.29437492 33.2595811,8.52471514 33.2595811,17.4673169 C33.2595811,26.1752021 26.1750981,33.2596051 17.4672929,33.2596051 C16.2969126,33.2596051 15.1563122,33.1307191 14.05806,32.8877572 C13.7616224,32.8221935 13.4543776,32.9353089 13.265932,33.1733075 C12.8769526,33.6647552 13.1317625,34.4004456 13.7440907,34.5341348 C15.1419827,34.8392982 16.6016758,34.9768299 18.1013956,34.9231941 C27.1566324,34.5992181 34.5294676,27.284982 34.9180467,18.232467 C35.3577799,7.98579586 26.9163923,-0.442863242 16.6653983,0.018084056" id="Fill-3" fill="#01C5DE"></path>
                <path d="M17.4672608,19.1121414 C18.1217772,19.1121414 18.7764536,19.2103669 19.4067138,19.4066578 C19.0138919,18.1461374 19.0138919,16.7884323 19.4067138,15.5279119 C18.1460334,15.9205737 16.7884883,15.9205737 15.5278079,15.5279119 C15.9206298,16.7884323 15.9206298,18.1461374 15.5278079,19.4066578 C16.158068,19.2103669 16.8127445,19.1121414 17.4672608,19.1121414 M21.5315704,22.270487 C21.3423242,22.270487 21.1533182,22.1983589 21.008982,22.0541027 C20.0673943,21.112515 18.8096758,20.5940093 17.4672608,20.5940093 C16.1248459,20.5940093 14.8671274,21.112515 13.9255397,22.0541027 C13.6368672,22.3426151 13.1691955,22.3426151 12.880443,22.0541027 C12.7361868,21.9097665 12.6640587,21.7206004 12.6640587,21.5315143 C12.6640587,21.3424283 12.7361868,21.1533422 12.880443,21.009006 C13.8221107,20.0674983 14.3405364,18.8096998 14.3405364,17.4672849 C14.3405364,16.12495 13.8221107,14.8670714 12.880443,13.9255637 C12.7361868,13.7813075 12.6640587,13.5921414 12.6640587,13.4030554 C12.6640587,13.2139693 12.7361868,13.0248032 12.880443,12.880547 C13.1691955,12.5919546 13.6368672,12.5919546 13.9255397,12.880547 C14.8671274,13.8220547 16.1248459,14.3406404 17.4672608,14.3406404 C18.8096758,14.3406404 20.0673943,13.8220547 21.008982,12.880547 C21.2976544,12.5919546 21.7653262,12.5919546 22.0540787,12.880547 C22.1983349,13.0248032 22.270463,13.2139693 22.270463,13.4030554 C22.270463,13.5921414 22.1983349,13.7813075 22.0540787,13.9255637 C21.1124109,14.8670714 20.5939853,16.12495 20.5939853,17.4672849 C20.5939853,18.8096998 21.1124109,20.0674983 22.0540787,21.009006 C22.1983349,21.1533422 22.270463,21.3424283 22.270463,21.5315143 C22.270463,21.7206004 22.1983349,21.9097665 22.0540787,22.0541027 C21.9097425,22.1983589 21.7206564,22.270487 21.5315704,22.270487" id="Fill-5" fill="#01C5DE"></path>
                <polygon id="Fill-7" fill="#171530" points="47.3123095 22.4663296 47.3123095 13.882447 44.1883869 13.882447 44.1883869 12.313481 52.258567 12.313481 52.258567 13.882447 49.1275997 13.882447 49.1275997 22.4663296"></polygon>
                <path d="M57.2616785,18.6176678 C57.2616785,17.0134783 56.5651341,16.0776544 55.3549673,16.0776544 C54.1377558,16.0776544 53.4411314,17.0134783 53.4411314,18.6176678 C53.4411314,20.2289019 54.1377558,21.1576811 55.3549673,21.1576811 C56.5721788,21.1576811 57.2616785,20.2289019 57.2616785,18.6176678 M51.65402,18.6176678 C51.65402,16.134012 53.0682428,14.6141988 55.3549673,14.6141988 C57.6486564,14.6141988 59.0558346,16.1269673 59.0558346,18.6176678 C59.0558346,21.1154129 57.6557011,22.6211368 55.3549673,22.6211368 C53.0471888,22.6211368 51.65402,21.1154129 51.65402,18.6176678" id="Fill-9" fill="#171530"></path>
                <path d="M60.238431,14.769014 L61.920032,14.769014 L61.920032,16.0144043 L62.0396318,16.0144043 C62.3703322,15.1348579 63.1583776,14.6141908 64.1785777,14.6141908 C65.240966,14.6141908 65.9797785,15.1489473 66.3034343,16.0144043 L66.423034,16.0144043 C66.8029673,15.1700814 67.6894783,14.6141908 68.7589913,14.6141908 C70.2998586,14.6141908 71.2285577,15.5781134 71.2285577,17.1753382 L71.2285577,22.4663055 L69.4906791,22.4663055 L69.4906791,17.6185937 C69.4906791,16.6264923 69.0193249,16.134004 68.083501,16.134004 C67.1758559,16.134004 66.5777772,16.7953249 66.5777772,17.6748712 L66.5777772,22.4663055 L64.8821668,22.4663055 L64.8821668,17.4919493 C64.8821668,16.6476264 64.3474103,16.134004 63.488998,16.134004 C62.6236211,16.134004 61.9833542,16.8446378 61.9833542,17.7874263 L61.9833542,22.4663055 L60.238431,22.4663055 L60.238431,14.769014 Z" id="Fill-11" fill="#171530"></path>
                <path d="M77.9485177,18.6176678 C77.9485177,17.0134783 77.2519733,16.0776544 76.0418065,16.0776544 C74.8245951,16.0776544 74.1279706,17.0134783 74.1279706,18.6176678 C74.1279706,20.2289019 74.8245951,21.1576811 76.0418065,21.1576811 C77.259018,21.1576811 77.9485177,20.2289019 77.9485177,18.6176678 M72.3408592,18.6176678 C72.3408592,16.134012 73.7550821,14.6141988 76.0418065,14.6141988 C78.3354957,14.6141988 79.7426738,16.1269673 79.7426738,18.6176678 C79.7426738,21.1154129 78.3425404,22.6211368 76.0418065,22.6211368 C73.734028,22.6211368 72.3408592,21.1154129 72.3408592,18.6176678" id="Fill-13" fill="#171530"></path>
                <mask id="mask-2" fill="white">
                    <use xlink:href="#path-1"></use>
                </mask>
                <g id="Clip-16"></g>
                <polygon id="Fill-15" fill="#171530" mask="url(#mask-2)" points="81.1082322 22.4663376 82.9235223 22.4663376 82.9235223 12.313489 81.1082322 12.313489"></polygon>
                <path d="M87.5747832,14.6142228 C89.4041628,14.6142228 90.5510073,15.4233222 90.6776518,16.8235357 L89.0382388,16.8235357 C88.9115944,16.2817345 88.397972,15.9369446 87.5818279,15.9369446 C86.7867378,15.9369446 86.1887392,16.316958 86.1887392,16.8727685 C86.1887392,17.3089793 86.5545831,17.5763576 87.328539,17.7522348 L88.6864843,18.0618012 C90.1569847,18.3925017 90.8394396,19.0257238 90.8394396,20.158559 C90.8394396,21.6361041 89.4814943,22.6211608 87.5606938,22.6211608 C85.6398933,22.6211608 84.4297265,21.7908472 84.2960374,20.3907138 L86.0198266,20.3907138 C86.1887392,20.9606137 86.7304603,21.2983589 87.602962,21.2983589 C88.4824283,21.2983589 89.0945163,20.9113809 89.0945163,20.341481 C89.0945163,19.9052702 88.7638959,19.6308472 88.0321281,19.4690594 L86.6671381,19.1523682 C85.1895931,18.8147031 84.4930487,18.1321681 84.4930487,16.9712342 C84.4930487,15.5781454 85.759493,14.6142228 87.5747832,14.6142228" id="Fill-17" fill="#171530" mask="url(#mask-2)"></path>
                <path d="M94.7942041,14.6142228 C96.6235837,14.6142228 97.7704283,15.4233222 97.8970727,16.8235357 L96.2576598,16.8235357 C96.1310153,16.2817345 95.6173929,15.9369446 94.8012488,15.9369446 C94.0061588,15.9369446 93.4081601,16.316958 93.4081601,16.8727685 C93.4081601,17.3089793 93.774004,17.5763576 94.54796,17.7522348 L95.9059053,18.0618012 C97.3764056,18.3925017 98.0588606,19.0257238 98.0588606,20.158559 C98.0588606,21.6361041 96.7009153,22.6211608 94.7801147,22.6211608 C92.8593142,22.6211608 91.6491474,21.7908472 91.5154583,20.3907138 L93.2392475,20.3907138 C93.4081601,20.9606137 93.9498813,21.2983589 94.8223829,21.2983589 C95.7018492,21.2983589 96.3139373,20.9113809 96.3139373,20.341481 C96.3139373,19.9052702 95.9833169,19.6308472 95.251549,19.4690594 L93.886559,19.1523682 C92.409014,18.8147031 91.7124696,18.1321681 91.7124696,16.9712342 C91.7124696,15.5781454 92.9789139,14.6142228 94.7942041,14.6142228" id="Fill-18" fill="#171530" mask="url(#mask-2)"></path>
                <path d="M105.946711,22.4663296 L104.26511,22.4663296 L104.26511,21.2420734 L104.14551,21.2420734 C103.772622,22.1215397 103.01972,22.6211528 101.844777,22.6211528 C100.163175,22.6211528 99.1781187,21.5727738 99.1781187,19.771573 L99.1781187,14.769038 L100.923042,14.769038 L100.923042,19.3353622 C100.923042,20.5103055 101.408566,21.0872502 102.44982,21.0872502 C103.582655,21.0872502 104.201788,20.3907058 104.201788,19.2509059 L104.201788,14.769038 L105.946711,14.769038 L105.946711,22.4663296 Z" id="Fill-19" fill="#171530" mask="url(#mask-2)"></path>
                <path d="M108.88836,17.8718586 L112.511896,17.8718586 C112.476672,16.7320587 111.787173,16.0002909 110.738794,16.0002909 C109.69746,16.0002909 108.965772,16.746068 108.88836,17.8718586 L108.88836,17.8718586 Z M114.179408,20.3484696 C113.848707,21.7486831 112.575218,22.6211047 110.759928,22.6211047 C108.494338,22.6211047 107.129348,21.1224256 107.129348,18.6458145 C107.129348,16.1691234 108.515472,14.6142468 110.745839,14.6142468 C112.941062,14.6142468 114.256819,16.0706578 114.256819,18.498036 L114.256819,19.0609713 L108.881316,19.0609713 L108.881316,19.1523923 C108.923504,20.432926 109.662316,21.2350607 110.809161,21.2350607 C111.674618,21.2350607 112.272616,20.9184496 112.525905,20.3484696 L114.179408,20.3484696 Z" id="Fill-20" fill="#171530" mask="url(#mask-2)"></path>
                <path d="M115.432339,14.769014 L117.11394,14.769014 L117.11394,15.9650914 L117.23354,15.9650914 C117.44464,15.2052248 118.274874,14.6423696 119.266895,14.6423696 C119.520184,14.6423696 119.829831,14.6705484 119.991618,14.7197812 L119.991618,16.33806 C119.857929,16.2887472 119.39354,16.2395143 119.098063,16.2395143 C117.965308,16.2395143 117.177262,16.9431034 117.177262,18.0195811 L117.177262,22.4663055 L115.432339,22.4663055 L115.432339,14.769014 Z" id="Fill-21" fill="#171530" mask="url(#mask-2)"></path>
            </g>
        </g>
    </g>
</svg>