<?xml version="1.0" encoding="UTF-8"?>
<svg width="120px" height="35px"  xmlns="http://www.w3.org/2000/svg" viewBox="0 0 2050.64 450">
    <defs>
        <style>
            .cls-1 {
                fill: #242828;
            }

            .cls-2 {
                fill: #00e8b5;
            }
        </style>
    </defs>
    <title>Asset 55</title>
    <g id="Layer_2" data-name="Layer 2">
        <g id="Layer_1-2" data-name="Layer 1">
            <path class="cls-1" d="M654.48,332V176H594.81V141.69H756.27V176H696.6V332Z" />
            <path class="cls-1"
                d="M780.3,325.7a59.64,59.64,0,0,1-24.57-24q-8.64-15.53-8.64-36.59t8.64-36.58a58.86,58.86,0,0,1,24.57-23.9q15.93-8.35,37-8.37t37,8.37a58.86,58.86,0,0,1,24.57,23.9q8.64,15.52,8.64,36.58t-8.64,36.59a59.64,59.64,0,0,1-24.57,24q-15.93,8.51-37,8.5T780.3,325.7ZM847,265.08q0-19.15-7.69-28.62t-22-9.45q-29.7,0-29.7,38.07t29.7,38.07Q847,303.15,847,265.08Z" />
            <path class="cls-1"
                d="M1109.43,210q11.07,13.77,11.07,42.12V332h-40.77V253.47q0-13.49-4.18-19.44t-14.18-5.94q-11.61,0-18.09,8.1t-6.48,22.68V332H996V253.47Q996,240,991.85,234t-14.18-5.94q-11.61,0-18.09,8.1t-6.48,22.68V332H912.33V199.47H952v17.82a41.6,41.6,0,0,1,16.61-15.66,51.16,51.16,0,0,1,23.89-5.4q29.43,0,39.42,24.57a47.48,47.48,0,0,1,18.09-18,50.9,50.9,0,0,1,25.65-6.62Q1098.36,196.23,1109.43,210Z" />
            <path class="cls-1"
                d="M1178,325.7a59.64,59.64,0,0,1-24.57-24q-8.64-15.53-8.64-36.59t8.64-36.58A58.86,58.86,0,0,1,1178,204.6q15.93-8.35,37-8.37t37,8.37a58.86,58.86,0,0,1,24.57,23.9q8.64,15.52,8.64,36.58t-8.64,36.59a59.64,59.64,0,0,1-24.57,24q-15.93,8.51-37,8.5T1178,325.7Zm66.69-60.62q0-19.15-7.7-28.62T1215,227q-29.7,0-29.7,38.07t29.7,38.07Q1244.7,303.15,1244.7,265.08Z" />
            <path class="cls-1" d="M1313.28,332V141.69h42.12V332Z" />
            <path class="cls-1"
                d="M1407.37,330a83.11,83.11,0,0,1-26.32-12l10.8-28.08a90.24,90.24,0,0,0,23.76,11.34,87.34,87.34,0,0,0,26.19,4.05q9.45,0,14.71-3.1t5.27-8.51a8.88,8.88,0,0,0-3.65-7.56q-3.64-2.68-13.63-4.86l-21.6-4.86q-19.19-4.31-28.22-13.36t-9-24.71a35.27,35.27,0,0,1,7.15-21.87q7.15-9.43,20.25-14.85t29.84-5.4a91.09,91.09,0,0,1,27.81,4.32A85.68,85.68,0,0,1,1495,212.7l-10.8,27q-21.06-14.58-41.58-14.58-9.46,0-14.85,3.24a10.16,10.16,0,0,0-5.4,9.18,8,8,0,0,0,3.24,6.75c2.16,1.62,5.94,3.16,11.34,4.59l22.41,5.13q20.25,4.61,29.56,13.91t9.32,25.24q0,19.18-15.26,30.11t-42,10.93A126.85,126.85,0,0,1,1407.37,330Z" />
            <path class="cls-1"
                d="M1538.86,330a83.11,83.11,0,0,1-26.32-12l10.8-28.08a90.24,90.24,0,0,0,23.76,11.34,87.34,87.34,0,0,0,26.19,4.05q9.45,0,14.71-3.1t5.27-8.51a8.88,8.88,0,0,0-3.65-7.56q-3.64-2.68-13.63-4.86l-21.6-4.86q-19.19-4.31-28.22-13.36t-9-24.71a35.27,35.27,0,0,1,7.15-21.87q7.15-9.43,20.25-14.85t29.84-5.4a91,91,0,0,1,27.81,4.32,85.68,85.68,0,0,1,24.3,12.15l-10.8,27q-21.06-14.58-41.58-14.58-9.46,0-14.85,3.24a10.16,10.16,0,0,0-5.4,9.18,8,8,0,0,0,3.24,6.75c2.16,1.62,5.94,3.16,11.34,4.59l22.41,5.13q20.25,4.61,29.56,13.91t9.32,25.24q0,19.18-15.26,30.11t-42,10.93A126.85,126.85,0,0,1,1538.86,330Z" />
            <path class="cls-1"
                d="M1780.65,199.47V332H1741v-18.9a41.89,41.89,0,0,1-16.34,15.66,47.7,47.7,0,0,1-22.81,5.4q-25.11,0-37.4-13.9t-12.28-42V199.47h40.77v79.65q0,11.89,5,17.55t15.26,5.67q11.88,0,19.3-8.1t7.43-21.33V199.47Z" />
            <path class="cls-1"
                d="M1931.3,273.45h-86.4q1.89,15.94,10.4,23.09t24.16,7.15a64.13,64.13,0,0,0,20.39-3.37,65.4,65.4,0,0,0,18.49-9.59l10.8,27.27a73.26,73.26,0,0,1-23.62,11.88,93.75,93.75,0,0,1-28,4.32q-33.48,0-52.78-18.49t-19.31-50.36q0-20.25,8.37-35.91A61.41,61.41,0,0,1,1837.07,205q14.85-8.77,33.75-8.78,27.81,0,44.15,18.09t16.33,49.14Zm-77.89-41.71q-6.89,7.42-8.51,21.46H1897q-.81-14.31-7.15-21.6t-18-7.29Q1860.29,224.31,1853.41,231.74Z" />
            <path class="cls-1"
                d="M2050.64,229.71l-22.95,2.43q-17,1.62-24,9.59t-7,21.19V332h-40.77V199.47H1995v22.41q10-22.93,41.31-25.11l11.88-.81Z" />
            <polygon class="cls-1"
                points="456.28 225 343.78 225 231.28 112.5 118.78 225 231.28 337.5 231.28 450 0 224.55 231.28 0 456.28 225" />
            <polygon class="cls-2" points="456.28 225 231.28 450 231.28 337.5 343.78 225 456.28 225" />
        </g>
    </g>
</svg>