<svg width="218" height="32" viewBox="0 0 218 32" fill="none" xmlns="http://www.w3.org/2000/svg">
<path d="M30.2962 14.0522V1.45694C25.6858 2.64297 20.8518 3.27273 15.8707 3.27273C10.8896 3.27273 6.05558 2.64153 1.44519 1.45694V14.0522C6.05558 15.2368 10.8896 15.868 15.8707 15.868C20.8518 15.868 25.6858 15.2382 30.2962 14.0522Z" fill="#1E1E1E"/>
<path d="M1.44519 17.972V30.5672C6.05558 29.3812 10.8896 28.7514 15.8707 28.7514C20.8518 28.7514 25.6858 29.3826 30.2962 30.5672V17.972C25.6858 16.7874 20.8518 16.1562 15.8707 16.1562C10.8896 16.1562 6.05558 16.786 1.44519 17.972Z" fill="#1E1E1E"/>
<path d="M92.0909 3.94342C85.2473 3.94342 80.9658 9.20049 80.9658 16.0807V16.0815C80.9658 23.059 85.6042 28.0889 92.1233 28.0889C95.3343 28.0889 97.5719 27.1159 99.1616 25.6227C100.718 24.1627 101.594 22.1826 101.724 20.1384H97.1178C96.8258 22.5721 94.8792 24.2276 92.1225 24.2276C88.2303 24.2276 85.7655 20.6902 85.7655 16.0815C85.7655 11.4728 87.8085 7.90289 92.09 7.90289C94.8152 7.90289 96.5662 9.42858 96.988 11.7649H101.659C101.172 7.35106 97.799 3.94342 92.0909 3.94342Z" fill="#1E1E1E"/>
<path d="M53.301 4.3979H58.2305L62.3174 17.8336C62.7716 19.3593 63.3231 21.5333 63.3231 21.5333H63.388C63.388 21.5333 63.9395 19.3268 64.3937 17.8336L68.4482 4.3979H73.2163L65.3994 27.6019H61.1179L53.301 4.3979Z" fill="#1E1E1E"/>
<path d="M79.0858 4.3979H74.3825V27.6019H79.0858V4.3979Z" fill="#1E1E1E"/>
<path d="M117.937 26.1539C119.67 27.4753 122.107 28.136 125.247 28.136C127.934 28.136 130.111 27.4861 131.778 26.1864C133.446 24.8867 134.28 23.0888 134.28 20.7927C134.28 19.8179 134.118 18.9622 133.793 18.2257C133.49 17.4676 133.1 16.861 132.623 16.4062C132.168 15.9512 131.519 15.5397 130.674 15.1715C129.851 14.7815 129.082 14.4891 128.367 14.2941C127.652 14.0775 126.731 13.85 125.605 13.6118C123.72 13.2002 122.399 12.7886 121.641 12.3771C120.904 11.9655 120.536 11.3156 120.536 10.4275C120.536 9.60434 120.915 8.94367 121.673 8.44544C122.431 7.94721 123.45 7.69816 124.728 7.69816C125.962 7.69816 126.98 8.00138 127.782 8.60794C128.605 9.21444 129.082 10.0809 129.212 11.2073H133.728C133.555 8.88951 132.677 7.10245 131.096 5.84607C129.515 4.5897 127.403 3.96148 124.76 3.96148C122.096 3.96148 119.94 4.56798 118.294 5.78105C116.669 6.97246 115.857 8.68376 115.857 10.9149C115.857 11.8463 116.009 12.6804 116.312 13.4168C116.615 14.1317 116.984 14.7165 117.417 15.1715C117.872 15.6047 118.478 16.0054 119.236 16.3737C120.016 16.7419 120.72 17.0127 121.348 17.186C121.998 17.3593 122.821 17.5651 123.818 17.8033C124.641 17.9983 125.204 18.1391 125.507 18.2257C125.811 18.2907 126.255 18.4098 126.84 18.5831C127.424 18.7348 127.825 18.8864 128.042 19.0381C128.258 19.168 128.518 19.3521 128.822 19.5904C129.125 19.8071 129.32 20.067 129.407 20.3703C129.515 20.6518 129.569 20.9768 129.569 21.345C129.569 22.3631 129.147 23.1213 128.302 23.6195C127.457 24.0961 126.374 24.3343 125.053 24.3343C123.385 24.3343 122.128 24.031 121.283 23.4245C120.46 22.818 119.973 21.8216 119.821 20.4352H115.207C115.294 22.9047 116.204 24.8109 117.937 26.1539Z" fill="#1E1E1E"/>
<path d="M145.933 28.136C142.792 28.136 140.355 27.4753 138.622 26.1539C136.889 24.8109 135.98 22.9047 135.893 20.4352H140.507C140.659 21.8216 141.146 22.818 141.969 23.4245C142.814 24.031 144.07 24.3343 145.738 24.3343C147.06 24.3343 148.143 24.0961 148.987 23.6195C149.832 23.1213 150.255 22.3631 150.255 21.345C150.255 20.9768 150.201 20.6518 150.092 20.3703C150.006 20.067 149.811 19.8071 149.507 19.5904C149.204 19.3521 148.944 19.168 148.728 19.0381C148.511 18.8864 148.11 18.7348 147.525 18.5831C146.94 18.4098 146.496 18.2907 146.193 18.2257C145.89 18.1391 145.327 17.9983 144.503 17.8033C143.507 17.5651 142.684 17.3593 142.034 17.186C141.406 17.0127 140.702 16.7419 139.922 16.3737C139.164 16.0054 138.557 15.6047 138.102 15.1715C137.669 14.7165 137.301 14.1317 136.998 13.4168C136.694 12.6804 136.543 11.8463 136.543 10.9149C136.543 8.68376 137.355 6.97246 138.98 5.78105C140.626 4.56798 142.781 3.96148 145.446 3.96148C148.089 3.96148 150.201 4.5897 151.782 5.84607C153.363 7.10245 154.24 8.88951 154.414 11.2073H149.897C149.767 10.0809 149.291 9.21444 148.468 8.60794C147.666 8.00138 146.648 7.69816 145.413 7.69816C144.135 7.69816 143.117 7.94721 142.359 8.44544C141.601 8.94367 141.222 9.60434 141.222 10.4275C141.222 11.3156 141.59 11.9655 142.326 12.3771C143.085 12.7886 144.406 13.2002 146.291 13.6118C147.417 13.85 148.338 14.0775 149.052 14.2941C149.767 14.4891 150.536 14.7815 151.359 15.1715C152.204 15.5397 152.854 15.9512 153.309 16.4062C153.786 16.861 154.175 17.4676 154.479 18.2257C154.804 18.9622 154.966 19.8179 154.966 20.7927C154.966 23.0888 154.132 24.8867 152.464 26.1864C150.796 27.4861 148.619 28.136 145.933 28.136Z" fill="#1E1E1E"/>
<path d="M159.698 25.9915C161.258 27.3345 163.532 28.006 166.522 28.006C169.468 28.006 171.699 27.3237 173.215 25.959C174.753 24.5943 175.522 22.6555 175.522 20.1428V4.38389H170.811V20.0778C170.811 21.3342 170.442 22.3415 169.706 23.0996C168.969 23.8578 167.876 24.2369 166.424 24.2369C163.522 24.2369 162.07 22.8721 162.07 20.1428V4.38389H157.359V20.1428C157.359 22.6772 158.139 24.6268 159.698 25.9915Z" fill="#1E1E1E"/>
<path d="M178.262 27.6161V4.38389H195.353V8.34797H182.974V13.5468H193.826V17.4134H182.974V23.6845H195.451V27.6161H178.262Z" fill="#1E1E1E"/>
<path fill-rule="evenodd" clip-rule="evenodd" d="M197.927 27.6161V4.38389H208.585C210.816 4.38389 212.614 4.97959 213.979 6.17095C215.365 7.36236 216.058 8.92202 216.058 10.8499C216.058 13.8175 214.639 15.6913 211.802 16.4711V16.5686C212.906 16.8935 213.729 17.4134 214.271 18.1283C214.834 18.8215 215.192 19.8612 215.343 21.2475C215.387 21.7674 215.43 22.3848 215.473 23.0996C215.538 23.7928 215.582 24.3452 215.603 24.7567L215.733 25.9915C215.798 26.403 215.874 26.728 215.961 26.9663C216.069 27.1829 216.199 27.3237 216.351 27.3886V27.6161H211.834C211.825 27.6115 211.816 27.6066 211.807 27.6013C211.786 27.5886 211.765 27.5739 211.745 27.557C211.694 27.5143 211.648 27.4581 211.607 27.3886C211.542 27.2587 211.487 27.0854 211.444 26.8687L211.314 26.2189C211.293 25.9806 211.26 25.6882 211.217 25.3416C211.195 24.9733 211.173 24.6593 211.152 24.3994C211.13 24.1177 211.098 23.7603 211.054 23.3271C211.033 22.8721 211.011 22.5148 210.989 22.2548C210.794 19.6121 209.278 18.2907 206.44 18.2907H202.639V27.6161H197.927ZM202.639 8.18553V14.6516H207.643C208.877 14.6516 209.82 14.3591 210.469 13.7742C211.141 13.1894 211.477 12.4204 211.477 11.4673C211.477 10.4925 211.163 9.70182 210.534 9.09531C209.906 8.48875 208.986 8.18553 207.772 8.18553H202.639Z" fill="#1E1E1E"/>
<path d="M108.354 27.6161V4.38389H113.066V27.6161H108.354Z" fill="#1E1E1E"/>
</svg>
