<?xml version="1.0" encoding="utf-8"?>
<!-- Generator: Adobe Illustrator 22.1.0, SVG Export Plug-In . SVG Version: 6.00 Build 0)  -->
<svg version="1.1" id="Layer_1" xmlns="http://www.w3.org/2000/svg" xmlns:xlink="http://www.w3.org/1999/xlink" x="0px" y="0px"
	 viewBox="0 0 76 57" style="enable-background:new 0 0 76 57;" xml:space="preserve">
<style type="text/css">
	.st0{fill:#DADADD;}
</style>
<g>
	<circle class="st0" cx="14" cy="13" r="2"/>
	<circle class="st0" cx="14" cy="2" r="2"/>
	<circle class="st0" cx="14" cy="23" r="2"/>
	<circle class="st0" cx="14" cy="34" r="2"/>
	<circle class="st0" cx="14" cy="45" r="2"/>
	<circle class="st0" cx="14" cy="55" r="2"/>
	<circle class="st0" cx="2" cy="13" r="2"/>
	<circle class="st0" cx="2" cy="2" r="2"/>
	<circle class="st0" cx="2" cy="23" r="2"/>
	<circle class="st0" cx="2" cy="34" r="2"/>
	<circle class="st0" cx="2" cy="45" r="2"/>
	<circle class="st0" cx="2" cy="55" r="2"/>
	<circle class="st0" cx="26" cy="13" r="2"/>
	<circle class="st0" cx="26" cy="2" r="2"/>
	<circle class="st0" cx="26" cy="23" r="2"/>
	<circle class="st0" cx="26" cy="34" r="2"/>
	<circle class="st0" cx="26" cy="45" r="2"/>
	<circle class="st0" cx="26" cy="55" r="2"/>
	<circle class="st0" cx="38" cy="13" r="2"/>
	<circle class="st0" cx="38" cy="2" r="2"/>
	<circle class="st0" cx="38" cy="23" r="2"/>
	<circle class="st0" cx="38" cy="34" r="2"/>
	<circle class="st0" cx="38" cy="45" r="2"/>
	<circle class="st0" cx="38" cy="55" r="2"/>
	<circle class="st0" cx="50" cy="13" r="2"/>
	<circle class="st0" cx="50" cy="2" r="2"/>
	<circle class="st0" cx="50" cy="23" r="2"/>
	<circle class="st0" cx="50" cy="34" r="2"/>
	<circle class="st0" cx="50" cy="45" r="2"/>
	<circle class="st0" cx="50" cy="55" r="2"/>
	<circle class="st0" cx="62" cy="13" r="2"/>
	<circle class="st0" cx="62" cy="2" r="2"/>
	<circle class="st0" cx="62" cy="23" r="2"/>
	<circle class="st0" cx="62" cy="34" r="2"/>
	<circle class="st0" cx="62" cy="45" r="2"/>
	<circle class="st0" cx="62" cy="55" r="2"/>
	<circle class="st0" cx="74" cy="13" r="2"/>
	<circle class="st0" cx="74" cy="2" r="2"/>
	<circle class="st0" cx="74" cy="23" r="2"/>
	<circle class="st0" cx="74" cy="34" r="2"/>
	<circle class="st0" cx="74" cy="45" r="2"/>
	<circle class="st0" cx="74" cy="55" r="2"/>
</g>
</svg>
