<?xml version="1.0" encoding="UTF-8"?>
<svg width="12px" height="10px" viewBox="0 0 12 10" version="1.1" xmlns="http://www.w3.org/2000/svg" xmlns:xlink="http://www.w3.org/1999/xlink">
    <!-- Generator: Sketch 55.1 (78136) - https://sketchapp.com -->
    <title>icon-angle-double-left</title>
    <desc>Created with Sketch.</desc>
    <g id="Page-1" stroke="none" stroke-width="1" fill="none" fill-rule="evenodd">
        <g id="Desktop-HD-Copy-2" transform="translate(-577.000000, -917.000000)" fill="#464555">
            <g id="icon-angle-double-left" transform="translate(577.000000, 917.000000)">
                <path d="M6.53426509,10 C6.45919138,10 6.39040351,9.97210059 6.32550379,9.93757396 C6.32330051,9.93642012 6.32106482,9.93553254 6.31873193,9.93494083 C5.97660706,9.85032544 5.89333583,9.37579882 6.15202746,9.1447929 C6.43712612,8.89026627 6.71318484,8.62730769 6.99491377,8.3695858 C8.18290586,7.28269231 9.37037953,6.19532544 10.5621302,5.11186391 C10.6596256,5.02319527 10.6577139,4.97544379 10.5613525,4.88775148 C9.11460401,3.57094675 7.67167882,2.25059172 6.22810561,0.930857988 C6.09240915,0.806804734 5.98269849,0.675532544 6.00226885,0.481065089 C6.0215152,0.289704142 6.09918101,0.146035503 6.30272571,0.0704733728 C6.30684067,0.0689349112 6.31082602,0.0668934911 6.31458457,0.0644970414 C6.377119,0.0246153846 6.44985982,0 6.52616478,0 L6.56200057,0 C6.64948396,0 6.73388924,0.0295857988 6.79865935,0.0831952663 C6.97816232,0.231745562 7.16009538,0.378047337 7.33149803,0.534023669 C8.80847693,1.87825444 10.2823777,3.22529586 11.7575422,4.57115385 C11.8928498,4.6945858 12.0087815,4.81784024 11.9994499,5.01532544 C11.9925161,5.16186391 11.9291716,5.26943787 11.8243535,5.36538462 C11.0590683,6.06559172 10.2927137,6.7647929 9.5267804,7.46440828 C8.66966995,8.24727811 7.81333712,9.0308284 6.954477,9.81210059 C6.90464386,9.85745562 6.84816847,9.89668639 6.79130427,9.93559172 C6.7302279,9.97739645 6.65593181,10 6.57959445,10 L6.53426509,10 Z" id="Page-1-Copy-2" transform="translate(9.000000, 5.000000) scale(-1, 1) translate(-9.000000, -5.000000) "></path>
                <path d="M0.534265093,10 C0.45919138,10 0.390403511,9.97210059 0.325503793,9.93757396 C0.323300508,9.93642012 0.321064821,9.93553254 0.318731931,9.93494083 C-0.0233929438,9.85032544 -0.106664175,9.37579882 0.152027462,9.1447929 C0.437126124,8.89026627 0.713184835,8.62730769 0.994913766,8.3695858 C2.18290586,7.28269231 3.37037953,6.19532544 4.56213017,5.11186391 C4.65962556,5.02319527 4.65771388,4.97544379 4.56135254,4.88775148 C3.11460401,3.57094675 1.67167882,2.25059172 0.228105614,0.930857988 C0.0924091493,0.806804734 -0.0173015075,0.675532544 0.00226885186,0.481065089 C0.0215151986,0.289704142 0.0991810121,0.146035503 0.30272571,0.0704733728 C0.306840669,0.0689349112 0.310826024,0.0668934911 0.31458457,0.0644970414 C0.377118996,0.0246153846 0.449859818,0 0.526164779,0 L0.562000569,0 C0.649483964,0 0.733889239,0.0295857988 0.798659352,0.0831952663 C0.978162317,0.231745562 1.16009538,0.378047337 1.33149803,0.534023669 C2.80847693,1.87825444 4.28237772,3.22529586 5.75754216,4.57115385 C5.89284981,4.6945858 6.0087815,4.81784024 5.99944994,5.01532544 C5.99251607,5.16186391 5.92917162,5.26943787 5.82435355,5.36538462 C5.05906826,6.06559172 4.29271372,6.7647929 3.5267804,7.46440828 C2.66966995,8.24727811 1.81333712,9.0308284 0.954476998,9.81210059 C0.904643864,9.85745562 0.848168473,9.89668639 0.791304266,9.93559172 C0.730227897,9.97739645 0.655931814,10 0.579594452,10 L0.534265093,10 Z" id="Page-1-Copy-3" transform="translate(3.000000, 5.000000) scale(-1, 1) translate(-3.000000, -5.000000) "></path>
            </g>
        </g>
    </g>
</svg>