<?xml version="1.0" encoding="UTF-8"?>
<svg width="9px" height="6px" viewBox="0 0 9 6" version="1.1" xmlns="http://www.w3.org/2000/svg" xmlns:xlink="http://www.w3.org/1999/xlink">
    <!-- Generator: Sketch 55.1 (78136) - https://sketchapp.com -->
    <title>icon-angle-up</title>
    <desc>Created with Sketch.</desc>
    <g id="Page-1" stroke="none" stroke-width="1" fill="none" fill-rule="evenodd">
        <g id="Desktop-HD-Copy-2" transform="translate(-1316.000000, -29.000000)" fill="#464555" fill-rule="nonzero">
            <path d="M1325,29.50797 C1325,29.6252638 1324.9609,29.7347364 1324.88271,29.836391 L1320.88301,34.7978948 C1320.78135,34.9308277 1320.64842,34.9972933 1320.48421,34.9972933 C1320.32,34.9972933 1320.18707,34.9308277 1320.08541,34.7978948 L1316.10917,29.8481203 C1316.02316,29.7386461 1315.98797,29.6135346 1316.00361,29.472782 C1316.01925,29.3320294 1316.0818,29.2186471 1316.19128,29.1326316 C1316.30075,29.0466162 1316.42586,29.0114285 1316.56662,29.0270677 C1316.70737,29.0427069 1316.82075,29.1052627 1316.90677,29.2147369 L1320.48421,33.6601504 L1324.08511,29.1912782 C1324.17113,29.081804 1324.28451,29.0192483 1324.42526,29.0036091 C1324.56602,28.9879699 1324.69113,29.0231575 1324.8006,29.109173 C1324.93353,29.2108276 1325,29.3437586 1325,29.50797 Z" id="icon-angle-up" transform="translate(1320.500000, 31.998647) scale(1, -1) translate(-1320.500000, -31.998647) "></path>
        </g>
    </g>
</svg>