<?xml version="1.0" encoding="UTF-8"?>
<svg width="18px" height="14px" viewBox="0 0 18 14" version="1.1" xmlns="http://www.w3.org/2000/svg" xmlns:xlink="http://www.w3.org/1999/xlink">
    <!-- Generator: Sketch 55.1 (78136) - https://sketchapp.com -->
    <title>icon-email</title>
    <desc>Created with Sketch.</desc>
    <g id="Page-1" stroke="none" stroke-width="1" fill="none" fill-rule="evenodd">
        <g id="Desktop-HD-Copy-2" transform="translate(-1281.000000, -976.000000)" fill="#464555">
            <g id="icon-email" transform="translate(1281.000000, 976.000000)">
                <path d="M15.9216409,13.935754 L1.99509545,13.935754 C1.67873182,13.850074 1.35200455,13.791414 1.06986818,13.569934 C2.97855,11.377394 4.87932273,9.193814 6.78568636,7.004074 C6.84432273,7.055034 6.88864091,7.092414 6.93173182,7.131194 C7.46259545,7.607754 7.99236818,8.085434 8.52405,8.560734 C8.82923182,8.833734 9.08750455,8.833734 9.39268636,8.560734 C9.92450455,8.085434 10.4541409,7.607754 10.9850045,7.131194 C11.0313682,7.089754 11.0795045,7.050274 11.1324136,7.005194 C13.0455955,9.203194 14.9460955,11.386494 16.8905045,13.620474 C16.5351409,13.736114 16.2284591,13.835934 15.9216409,13.935754" id="Fill-1"></path>
                <path d="M17.9160955,11.888114 C17.8794136,12.031194 17.8494136,12.176794 17.8040045,12.316934 C17.7603682,12.451474 17.7009136,12.580834 17.6342318,12.748414 C15.7371409,10.569454 13.8615955,8.414854 11.9721409,6.244854 C13.8371864,4.569474 15.6902318,2.904734 17.5545955,1.229914 C17.7746864,1.517194 17.8314136,1.858654 17.9160955,2.188494 L17.9160955,11.888114 Z" id="Fill-6"></path>
                <path d="M8.95843636,7.424382 C6.3588,5.089042 3.77948182,2.772042 1.15407273,0.413462 C1.40852727,0.328342 1.62561818,0.240702 1.85007273,0.185962 C2.00675455,0.147602 2.17393636,0.142562 2.33634545,0.142562 C6.74989091,0.140462 11.1634364,0.141442 15.5768455,0.140041816 C15.9799364,0.139902 16.3606636,0.219842 16.7397545,0.434182 C14.1402545,2.769382 11.5553455,5.091562 8.95843636,7.424382" id="Fill-8"></path>
                <path d="M5.94471818,6.243412 C4.05703636,8.412012 2.18217273,10.566192 0.295990909,12.733252 C0.121990909,12.443592 0.0449454545,12.141472 0.0116727273,11.825492 C0.00158181818,11.730572 0.00103636364,11.634252 0.00103636364,11.538492 C0.000490909091,8.539552 0.00117272727,5.540612 -5.46890742e-05,2.541672 C-0.000190909091,2.077152 0.0967636364,1.642592 0.353536364,1.222592 C2.21544545,2.894612 4.06876364,4.558932 5.94471818,6.243412" id="Fill-11"></path>
            </g>
        </g>
    </g>
</svg>