<?xml version="1.0" encoding="UTF-8"?>
<svg width="50px" height="51px" viewBox="0 0 50 51" version="1.1" xmlns="http://www.w3.org/2000/svg" xmlns:xlink="http://www.w3.org/1999/xlink">
    <!-- Generator: Sketch 55.1 (78136) - https://sketchapp.com -->
    <title></title>
    <desc>Created with Sketch.</desc>
    <g id="Page-1" stroke="none" stroke-width="1" fill="none" fill-rule="evenodd">
        <path d="M35.2050781,15.1914062 C35.5631528,14.8333315 35.9863257,14.6542969 36.4746094,14.6542969 C36.9628931,14.6542969 37.377928,14.8251936 37.7197266,15.1669922 C38.0615251,15.5087908 38.2324219,15.9238257 38.2324219,16.4121094 C38.2324219,16.9003931 38.0533872,17.3235659 37.6953125,17.6816406 L20.1660156,35.2597656 L20.1171875,35.3085938 C20.0195308,35.4062505 19.8893237,35.5039058 19.7265625,35.6015625 C19.4661445,35.7643237 19.1731787,35.8457031 18.8476562,35.8457031 C18.1640591,35.8457031 17.6595068,35.5527373 17.3339844,34.9667969 L12.0117187,25.640625 C11.7513017,25.2174458 11.6861973,24.7779971 11.8164062,24.3222656 C11.9466152,23.8665342 12.2233052,23.5166028 12.6464844,23.2724609 C13.0696636,23.0283191 13.5172502,22.9713535 13.9892578,23.1015625 C14.4612654,23.2317715 14.8111968,23.5084614 15.0390625,23.9316406 L19.2382812,31.2070312 L35.2050781,15.1914062 Z M37.5488281,3.61914062 C41.3899932,5.83269336 44.4254446,8.86000684 46.6552734,12.7011719 C48.8851023,16.5423369 50,20.7252378 50,25.25 C50,29.7747622 48.8851023,33.9576631 46.6552734,37.7988281 C44.4254446,41.6399932 41.3899932,44.6754446 37.5488281,46.9052734 C33.7076631,49.1351023 29.5247622,50.25 25,50.25 C20.4752378,50.25 16.2923369,49.1351023 12.4511719,46.9052734 C8.61000684,44.6754446 5.57455542,41.6399932 3.34472656,37.7988281 C1.11489771,33.9576631 0,29.7747622 0,25.25 C0,20.7252378 1.11489771,16.5423369 3.34472656,12.7011719 C5.57455542,8.86000684 8.61000684,5.82455542 12.4511719,3.59472656 C16.2923369,1.36489771 20.4752378,0.25 25,0.25 C29.5247622,0.25 33.7076631,1.37303564 37.5488281,3.61914062 Z M40.1855469,40.4355469 C42.1712339,38.4498599 43.7174424,36.1712368 44.8242188,33.5996094 C45.9309951,30.9628774 46.484375,28.1797021 46.484375,25.25 C46.484375,22.3202979 45.9147192,19.5371226 44.7753906,16.9003906 C43.7011665,14.3287632 42.1712339,12.0501401 40.1855469,10.0644531 C38.1998599,8.07876611 35.9212368,6.53255762 33.3496094,5.42578125 C30.7128774,4.31900488 27.9297021,3.765625 25,3.765625 C22.0702979,3.765625 19.2871226,4.33528076 16.6503906,5.47460938 C14.0787632,6.5488335 11.8001401,8.07876611 9.81445312,10.0644531 C7.82876611,12.0501401 6.28255762,14.3287632 5.17578125,16.9003906 C4.06900488,19.5371226 3.515625,22.3202979 3.515625,25.25 C3.515625,28.1797021 4.08528076,30.9628774 5.22460938,33.5996094 C6.2988335,36.1712368 7.82876611,38.4498599 9.81445312,40.4355469 C11.8001401,42.4212339 14.0787632,43.9674424 16.6503906,45.0742188 C19.2871226,46.1809951 22.0702979,46.734375 25,46.734375 C27.9297021,46.734375 30.7128774,46.1647192 33.3496094,45.0253906 C35.9212368,43.9511665 38.1998599,42.4212339 40.1855469,40.4355469 Z" id="" fill="#464555" fill-rule="nonzero"></path>
    </g>
</svg>