<?xml version="1.0" encoding="UTF-8"?>
<svg width="14px" height="13px" viewBox="0 0 14 13" version="1.1" xmlns="http://www.w3.org/2000/svg" xmlns:xlink="http://www.w3.org/1999/xlink">
    <!-- Generator: Sketch 55.1 (78136) - https://sketchapp.com -->
    <title>icon-wallet</title>
    <desc>Created with Sketch.</desc>
    <g id="Page-1" stroke="none" stroke-width="1" fill="none" fill-rule="evenodd">
        <g id="Desktop-HD-Copy-2" transform="translate(-1199.000000, -23.000000)" fill="#464555" fill-rule="nonzero">
            <path d="M1207.12109,28.9082031 C1207.22135,28.8079422 1207.33984,28.7578125 1207.47656,28.7578125 C1207.61328,28.7578125 1207.72949,28.8056636 1207.8252,28.9013672 C1207.9209,28.9970708 1207.96875,29.1132806 1207.96875,29.25 C1207.96875,29.3867194 1207.9209,29.5029292 1207.8252,29.5986328 C1207.72949,29.6943364 1207.61328,29.7421875 1207.47656,29.7421875 C1207.33984,29.7421875 1207.22363,29.6943364 1207.12793,29.5986328 C1207.03223,29.5029292 1206.98438,29.3867194 1206.98438,29.25 C1206.98438,29.1132806 1207.02995,28.9993494 1207.12109,28.9082031 Z M1212.01562,23 C1212.28906,23 1212.52148,23.0957022 1212.71289,23.2871094 C1212.9043,23.4785166 1213,23.7109361 1213,23.984375 L1213,34.515625 C1213,34.7890639 1212.9043,35.0214834 1212.71289,35.2128906 C1212.52148,35.4042978 1212.28906,35.5 1212.01562,35.5 L1199.98438,35.5 C1199.71094,35.5 1199.47852,35.4042978 1199.28711,35.2128906 C1199.0957,35.0214834 1199,34.7890639 1199,34.515625 L1199,23.984375 C1199,23.7109361 1199.0957,23.4785166 1199.28711,23.2871094 C1199.47852,23.0957022 1199.71094,23 1199.98438,23 L1212.01562,23 Z M1212.01562,30.015625 L1212.01562,28.484375 L1206.10938,28.484375 L1206.10938,30.015625 L1212.01562,30.015625 Z M1212.01562,27.5 L1212.01562,23.984375 L1199.98438,23.984375 L1199.98438,34.515625 L1212.01562,34.515625 L1212.01562,31 L1206.10938,31 C1205.83594,31 1205.60352,30.9042978 1205.41211,30.7128906 C1205.2207,30.5214834 1205.125,30.2890639 1205.125,30.015625 L1205.125,28.484375 C1205.125,28.2109361 1205.2207,27.9785166 1205.41211,27.7871094 C1205.60352,27.5957022 1205.83594,27.5 1206.10938,27.5 L1212.01562,27.5 Z" id="icon-wallet"></path>
        </g>
    </g>
</svg>