<?xml version="1.0" encoding="UTF-8"?>
<svg width="17px" height="17px" viewBox="0 0 17 17" version="1.1" xmlns="http://www.w3.org/2000/svg" xmlns:xlink="http://www.w3.org/1999/xlink">
    <!-- Generator: Sketch 55.1 (78136) - https://sketchapp.com -->
    <title>icon-linkedin</title>
    <desc>Created with Sketch.</desc>
    <g id="Page-1" stroke="none" stroke-width="1" fill="none" fill-rule="evenodd">
        <g id="Desktop-HD-Copy-2" transform="translate(-1237.000000, -974.000000)" fill="#464555">
            <g id="icon-linkedin" transform="translate(1237.000000, 974.000000)">
                <path d="M5.47220672,16.6965143 C5.47895096,13.8369383 5.48732312,10.9775903 5.4915092,8.11801428 C5.49243944,7.38818628 5.47895096,6.65813028 5.47220672,5.92807428 C5.4717416,5.86765428 5.47220672,5.80700628 5.47220672,5.73655428 L9.18246896,5.73655428 L9.18246896,7.25891028 C9.24339968,7.18572228 9.2752604,7.15311828 9.30060944,7.11618228 C10.0843366,5.98735428 11.1806245,5.45748228 12.5641239,5.47230228 C13.3562233,5.48096628 14.1071595,5.63760228 14.7934441,6.04184628 C15.516008,6.46729428 16.0125236,7.08107028 16.3399681,7.83301428 C16.6013655,8.43333828 16.7306689,9.06489828 16.78346,9.71333028 C16.7890414,9.78446628 16.8036927,9.85446228 16.8143905,9.92514228 L16.8143905,16.6965143 L13.1236633,16.6965143 C13.1143609,16.6265183 13.0966863,16.5569783 13.0966863,16.4872103 C13.0950584,14.6404103 13.1013375,12.7938383 13.0908723,10.9470383 C13.0885467,10.5681023 13.056686,10.1834663 12.9834296,9.81159828 C12.8701729,9.23589828 12.5959846,8.73977028 12.0108637,8.50059828 C11.0680654,8.11527828 9.93991688,8.43470628 9.39805208,9.48533028 C9.20409704,9.86153028 9.19060856,10.2605303 9.190376,10.6645463 C9.18898064,12.6052823 9.19014344,14.5457903 9.18851552,16.4865263 C9.18851552,16.5565223 9.17153864,16.6265183 9.1624688,16.6965143 L5.47220672,16.6965143 Z" id="Fill-4"></path>
                <path d="M0.0154889788,16.8781188 C0.0104193318,16.803842 0.000521449412,16.7293278 0.000521449412,16.655051 C-0.000202785882,12.9991129 3.86258824e-05,9.34341208 3.86258824e-05,5.68771127 L3.86258824e-05,5.472 L3.85224616,5.472 L3.85224616,5.65187804 C3.85224616,9.33083486 3.85224616,13.0095544 3.85200474,16.6882739 C3.85200474,16.7516346 3.84814216,16.814758 3.84621086,16.8781188 L0.0154889788,16.8781188 Z" id="Fill-7"></path>
                <path d="M1.98552829,3.78745316 C2.09482429,3.77422916 2.25876829,3.76875716 2.41644829,3.73341716 C3.13011229,3.57336116 3.64160029,3.15338516 3.82347229,2.38958516 C4.00188829,1.63878116 3.82995229,0.968461161 3.26100829,0.455689161 C2.79250429,0.0336611612 2.22680029,-0.0463668388 1.63366429,0.0213491612 C0.353864293,0.167725161 -0.375999707,1.54370516 0.198992293,2.74868516 C0.553880293,3.49196516 1.17855229,3.76738916 1.98552829,3.78745316" id="Fill-1"></path>
            </g>
        </g>
    </g>
</svg>