<?xml version="1.0" encoding="UTF-8"?>
<svg width="19px" height="16px" viewBox="0 0 19 16" version="1.1" xmlns="http://www.w3.org/2000/svg" xmlns:xlink="http://www.w3.org/1999/xlink">
    <!-- Generator: Sketch 55.1 (78136) - https://sketchapp.com -->
    <title>icon-telegram</title>
    <desc>Created with Sketch.</desc>
    <g id="Page-1" stroke="none" stroke-width="1" fill="none" fill-rule="evenodd">
        <g id="Desktop-HD-Copy-2" transform="translate(-1145.000000, -975.000000)" fill="#464555">
            <path d="M1151.68797,987.544784 C1151.75997,987.544784 1151.82197,987.459784 1151.83797,987.334784 C1151.90197,986.875784 1151.97697,986.418784 1152.01897,985.957784 C1152.06697,985.436784 1152.27097,985.018784 1152.66297,984.657784 C1154.72797,982.754784 1156.78097,980.838784 1158.83697,978.926784 C1158.97197,978.801784 1159.11497,978.682784 1159.23697,978.545784 C1159.28097,978.497784 1159.30997,978.389784 1159.28497,978.336784 C1159.23597,978.232784 1159.13797,978.267784 1159.05697,978.319784 C1159.04197,978.329784 1159.02697,978.338784 1159.01097,978.348784 C1156.31997,980.006784 1153.62697,981.664784 1150.93597,983.324784 C1150.56297,983.554784 1150.43097,983.891784 1150.54597,984.315784 C1150.63397,984.635784 1150.72597,984.954784 1150.81597,985.273784 C1151.00697,985.946784 1151.19697,986.619784 1151.38897,987.291784 C1151.42297,987.411784 1151.45497,987.540784 1151.68797,987.544784 M1151.66397,989.791784 C1151.39597,989.762784 1151.21997,989.625784 1151.13297,989.347784 C1150.93997,988.731784 1150.75097,988.112784 1150.55997,987.496784 C1150.23497,986.449784 1149.90697,985.403784 1149.58697,984.355784 C1149.54797,984.228784 1149.48397,984.161784 1149.35997,984.116784 C1148.04797,983.632784 1146.73797,983.145784 1145.43097,982.648784 C1145.29597,982.596784 1145.14997,982.498784 1145.07497,982.380784 C1144.89997,982.103784 1145.04297,981.793784 1145.38297,981.660784 C1145.87997,981.467784 1146.37797,981.277784 1146.87597,981.085784 C1151.84597,979.168784 1156.81697,977.250784 1161.78697,975.332784 C1162.02497,975.240784 1162.26397,975.152784 1162.49997,975.057784 C1162.70297,974.974784 1162.89397,974.969784 1163.06697,975.118784 C1163.23697,975.266784 1163.26597,975.450784 1163.21997,975.667784 C1162.75697,977.878784 1162.29897,980.090784 1161.83997,982.301784 C1161.28497,984.977784 1160.72997,987.652784 1160.17297,990.327784 C1160.15197,990.431784 1160.12697,990.539784 1160.07797,990.631784 C1159.93197,990.900784 1159.60497,990.955784 1159.32697,990.757784 C1158.84797,990.416784 1158.37497,990.069784 1157.89897,989.724784 C1156.99097,989.065784 1156.08397,988.405784 1155.17597,987.747784 C1154.86297,987.520784 1154.55497,987.525784 1154.24797,987.775784 C1153.50397,988.376784 1152.76597,988.983784 1152.02197,989.583784 C1151.91597,989.668784 1151.78397,989.723784 1151.66397,989.791784" id="icon-telegram"></path>
        </g>
    </g>
</svg>