<?xml version="1.0" encoding="UTF-8"?>
<svg width="22px" height="22px" viewBox="0 0 22 22" version="1.1" xmlns="http://www.w3.org/2000/svg" xmlns:xlink="http://www.w3.org/1999/xlink">
    <!-- Generator: Sketch 55.1 (78136) - https://sketchapp.com -->
    <title>icon-tomoz</title>
    <desc>Created with Sketch.</desc>
    <g id="Page-1" stroke="none" stroke-width="1" fill="none" fill-rule="evenodd">
        <g id="Desktop-HD-Copy-2" transform="translate(-1050.000000, -111.000000)" fill="#464555">
            <g id="icon-tomoz" transform="translate(1050.000000, 111.000000)">
                <path d="M19.1172549,12.7163323 C19.1788247,12.4298288 18.958422,12.1596366 18.6653739,12.1596366 L18.5265776,12.1596366 C18.3138773,12.1596366 18.1269025,12.3057831 18.0813922,12.5135497 C17.3972275,15.6371469 14.6620787,18.0210508 11.3693281,18.1550142 C6.29795057,18.3612705 2.31695744,13.2731286 4.51262792,7.97646499 C5.17861876,6.36991121 6.46222059,5.08812174 8.06932815,4.42338947 C11.7031542,2.92024073 15.2377034,4.32370984 17.03093,6.99094554 C17.1688705,7.19614462 17.4451039,7.25388833 17.6544815,7.12249245 L17.7361886,7.07129336 C17.9733556,6.92242838 18.0415707,6.60592037 17.8842984,6.37419039 C15.9122526,3.46888146 12.1331863,1.88503249 8.17504897,3.25295927 C5.93985904,4.02547643 4.17814737,5.75230023 3.37859588,7.97797529 C1.2978087,13.7701675 5.56077437,19.2143872 11.0714471,19.2143872 C15.0153876,19.2143872 18.3198178,16.4254719 19.1172549,12.7163323" id="Fill-1"></path>
                <path d="M10.4804124,0.01137254 C4.83195011,0.265354233 0.260128604,4.84316659 0.0108791762,10.4917799 C-0.0440453089,11.7374229 0.11055881,12.9399721 0.441213272,14.068114 C0.530824256,14.3737478 0.877336842,14.5230156 1.16504851,14.386384 C1.16832082,14.3848233 1.17154279,14.383313 1.17476476,14.3817524 C1.40775332,14.2711483 1.52344211,14.0084069 1.45104851,13.7608691 C1.15759771,12.7573268 1.01678764,11.6893954 1.06144211,10.5823977 C1.26815149,5.45634737 5.4145222,1.28797666 10.5398174,1.06314371 C16.2174284,0.813994966 20.9159638,5.36094691 20.9159638,10.9846906 C20.9159638,16.4608279 16.4607876,20.9160041 10.9846503,20.9160041 C10.248632,20.9160041 9.53139176,20.8349515 8.84068238,20.6821597 C8.65431167,20.6409286 8.46104394,20.7120636 8.34258627,20.8617341 C8.09791808,21.1707913 8.25816064,21.6334458 8.64323616,21.717519 C9.52232998,21.9094275 10.4403391,21.9959172 11.3834696,21.9621872 C17.0779959,21.7584481 21.7146092,17.1587364 21.9589249,11.4658714 C22.2355108,5.02203616 16.9269158,-0.27850389 10.4804124,0.01137254" id="Fill-3"></path>
                <path d="M8.79639542,14.4028815 C8.65422609,14.4028815 8.53989657,14.3521355 8.4468119,14.2477739 C8.35166316,14.1413483 8.30489428,14.036584 8.30388741,13.9274398 C8.31209336,13.8223231 8.32830389,13.7348265 8.3520659,13.6674169 C8.37582792,13.6003094 8.42113684,13.5205153 8.48678444,13.4303506 L12.1389355,8.55153593 L9.0120659,8.55153593 C8.86763112,8.55153593 8.74982792,8.50391121 8.6519103,8.40584256 C8.55374096,8.30782426 8.5060659,8.19002105 8.5060659,8.04553593 C8.5060659,7.90190664 8.55107277,7.78898673 8.64360366,7.70028192 C8.73734279,7.61021785 8.85786453,7.56651991 9.0120659,7.56651991 L13.1511368,7.56651991 C13.2930545,7.56651991 13.4074343,7.6172659 13.5008211,7.7216778 C13.5949629,7.82734828 13.6374526,7.95295469 13.6304549,8.10549474 C13.6221986,8.18619497 13.6079515,8.25738032 13.5881162,8.31723844 C13.5700934,8.37115606 13.529265,8.43423616 13.4668897,8.50446499 L13.4641208,8.50758627 L9.78146178,13.4178151 L13.1511368,13.4178151 C13.2961254,13.4178151 13.414432,13.4637785 13.5128531,13.5582728 C13.6099652,13.6518609 13.6571872,13.7670462 13.6571872,13.9103231 C13.6571872,14.0538014 13.6099652,14.1689867 13.5128027,14.2624741 C13.4145831,14.3569684 13.2962764,14.4028815 13.1511368,14.4028815 L8.79639542,14.4028815 Z" id="Fill-5"></path>
                <path d="M13.1368293,11.530341 L9.00868284,11.530341 C8.71795057,11.530341 8.48007872,11.2924691 8.48007872,11.0017368 C8.48007872,10.7110046 8.71795057,10.4731327 9.00868284,10.4731327 L13.1368293,10.4731327 C13.4275616,10.4731327 13.6654334,10.7110046 13.6654334,11.0017368 C13.6654334,11.2924691 13.4275616,11.530341 13.1368293,11.530341" id="Fill-7"></path>
            </g>
        </g>
    </g>
</svg>