<?xml version="1.0" encoding="UTF-8"?>
<svg width="60px" height="60px" viewBox="0 0 60 60" version="1.1" xmlns="http://www.w3.org/2000/svg" xmlns:xlink="http://www.w3.org/1999/xlink">
    <!-- Generator: Sketch 55.1 (78136) - https://sketchapp.com -->
    <title>burn</title>
    <desc>Created with Sketch.</desc>
    <g id="Page-1" stroke="none" stroke-width="1" fill="none" fill-rule="evenodd">
        <g id="43.-Burn-3" transform="translate(-685.000000, -379.000000)" fill="#00BAD1" fill-rule="nonzero">
            <g id="burn" transform="translate(685.000000, 379.000000)">
                <path d="M59.4107493,0.153701264 C59.0464534,-0.0544609596 58.5984127,-0.0509526076 58.237504,0.162822979 L27.2318052,18.52086 C26.6765431,18.8495926 26.4925847,19.5666997 26.8209066,20.1226566 C27.1491116,20.6784965 27.8653227,20.862685 28.4207016,20.5340693 L53.3794856,5.75630565 L24.7747242,35.4735681 L10.5476788,31.1154931 L29.1146225,20.1226566 C29.6698846,19.7938071 29.853843,19.0766999 29.5255211,18.520743 C29.1973161,17.9649031 28.4809882,17.7804807 27.9257261,18.1093303 L7.07956789,30.451596 C6.6812835,30.6874742 6.45948231,31.1364263 6.51426101,31.5966051 C6.56903972,32.056784 6.88988641,32.4410655 7.33232079,32.5766048 L24.3229459,37.7811282 L31.8187515,51.4418326 C31.8265771,51.4559829 31.8346362,51.4679113 31.8429289,51.4785533 C31.9680206,51.6874172 32.1554829,51.8580401 32.3893144,51.9565078 C32.5356634,52.0181379 32.6894877,52.0481928 32.8422607,52.0481928 C33.1416164,52.0481928 33.4363001,51.9328849 33.6588021,51.7150163 L42.2778631,43.2809379 L58.4902569,48.2471272 C58.6023839,48.2813921 58.7174308,48.2983491 58.8318938,48.2983491 C59.0790404,48.2983491 59.3231501,48.219762 59.5266139,48.0690198 C59.8243344,47.8484614 60,47.4996143 60,47.1288984 L60,1.16948614 C60,0.749536393 59.7750452,0.361746542 59.4107493,0.153701264 Z M31.882407,38.5018607 C31.7471538,38.6975098 31.6746217,38.9297627 31.6746217,39.1677459 L31.6746217,46.3213927 L26.5561417,36.9932693 L49.2059091,13.4627518 L31.882407,38.5018607 Z M34.0106005,48.100595 L34.0106005,40.7486093 L39.7325806,42.501382 L34.0106005,48.100595 Z M57.6640212,45.5481519 L34.7131461,38.5178821 L57.6640212,5.3448929 L57.6640212,45.5481519 Z" id="Shape"></path>
                <path d="M19.1818729,40.8181293 C18.7334924,40.3698605 18.0068541,40.3698605 17.5583587,40.8181293 L6.84222344,51.5343355 C6.39395765,51.9826042 6.39395765,52.7094769 6.84222344,53.1578604 C7.06652853,53.3819374 7.36028324,53.4939759 7.65403796,53.4939759 C7.94779267,53.4939759 8.24154739,53.3819374 8.46573768,53.1577456 L19.1818729,42.4415395 C19.6301387,41.9933855 19.6301387,41.2665128 19.1818729,40.8181293 Z" id="Path"></path>
                <path d="M4.71558159,55.2842302 C4.25591808,54.8249157 3.51099487,54.8249157 3.05133136,55.2843479 L0.344659373,57.9910435 C-0.114886458,58.4505933 -0.114886458,59.1957584 0.344659373,59.6554259 C0.57449113,59.885142 0.875637809,60 1.17678449,60 C1.47793117,60 1.77907785,59.8850243 2.0089096,59.6553082 L4.71558159,56.9486126 C5.17512742,56.4890628 5.17512742,55.7438977 4.71558159,55.2842302 Z" id="Path"></path>
                <path d="M16.3086867,58.1490361 C16.1071084,57.9473494 15.8273494,57.8313253 15.5421687,57.8313253 C15.2557952,57.8313253 14.9772289,57.9473494 14.7755422,58.1490361 C14.5738554,58.3507229 14.4578313,58.6293976 14.4578313,58.9156627 C14.4578313,59.2008434 14.573747,59.4806024 14.7755422,59.6822892 C14.9772289,59.8839759 15.256988,60 15.5421687,60 C15.8273494,60 16.1071084,59.8839759 16.3086867,59.6822892 C16.5103735,59.4806024 16.626506,59.2008434 16.626506,58.9156627 C16.626506,58.6293976 16.5104819,58.3507229 16.3086867,58.1490361 Z" id="Path"></path>
                <path d="M25.688742,49.4919845 C25.2418317,49.0448405 24.5170196,49.0448405 24.0694224,49.4919845 L18.4076436,55.15371 C17.9605043,55.6008541 17.9605043,56.325903 18.4076436,56.7730471 C18.6312704,56.9966763 18.9242869,57.1084337 19.2173034,57.1084337 C19.5103198,57.1084337 19.8033363,56.9965618 20.0269632,56.7730471 L25.688742,51.1113216 C26.1358812,50.6641776 26.1358812,49.9391286 25.688742,49.4919845 Z" id="Path"></path>
                <path d="M45.2074601,48.7683554 C44.7610677,48.3221948 44.0376515,48.3221948 43.5912591,48.7683554 L37.92507,54.4345038 C37.4787919,54.8807786 37.4787919,55.6044182 37.92507,56.0508074 C38.1482662,56.2738877 38.4407184,56.3855422 38.7331705,56.3855422 C39.0256227,56.3855422 39.3180748,56.2738877 39.541271,56.0508074 L45.2074601,50.3846591 C45.6537382,49.9383842 45.6537382,49.2147446 45.2074601,48.7683554 Z" id="Path"></path>
            </g>
        </g>
    </g>
</svg>