<?xml version="1.0" encoding="UTF-8"?>
<svg width="12px" height="10px" viewBox="0 0 12 10" version="1.1" xmlns="http://www.w3.org/2000/svg" xmlns:xlink="http://www.w3.org/1999/xlink">
    <!-- Generator: Sketch 55.1 (78136) - https://sketchapp.com -->
    <title></title>
    <desc>Created with Sketch.</desc>
    <g id="Page-1" stroke="none" stroke-width="1" fill="none" fill-rule="evenodd">
        <path d="M0.689351157,4.32926829 L9.65979265,4.32926829 L6.35597052,1.15853659 C6.21321205,1.0264221 6.1418339,0.868903354 6.1418339,0.68597561 C6.1418339,0.503047866 6.2055644,0.342988491 6.33302731,0.205792683 C6.46049022,0.068596875 6.61599264,0 6.79953923,0 C6.98308582,0 7.1462359,0.060975 7.28899436,0.182926829 L11.7858634,4.51219512 C11.9286218,4.6443096 12,4.80436898 12,4.99237805 C12,5.18038712 11.9286218,5.34044649 11.7858634,5.47256098 L7.25840341,9.81707317 C7.12584199,9.939025 6.97288879,10 6.79953923,10 C6.6057956,10 6.44264552,9.9288625 6.3100841,9.78658537 C6.17752267,9.65447088 6.11379217,9.49695213 6.11889069,9.31402439 C6.1239892,9.13109665 6.19281814,8.9735779 6.32537957,8.84146341 L9.62920171,5.67073171 L0.674055684,5.67073171 C0.500706125,5.67073171 0.347752926,5.60975671 0.215191498,5.48780488 C0.0826300709,5.36585305 0.0112519114,5.2184968 0.00105487848,5.04573171 C-0.00914215441,4.85264131 0.0545883452,4.68496006 0.192248289,4.54268293 C0.329908233,4.40040579 0.495607532,4.32926829 0.689351157,4.32926829 Z" id="" fill="#464555" fill-rule="nonzero"></path>
    </g>
</svg>