<?xml version="1.0" encoding="UTF-8"?>
<svg width="7px" height="12px" viewBox="0 0 7 12" version="1.1" xmlns="http://www.w3.org/2000/svg" xmlns:xlink="http://www.w3.org/1999/xlink">
    <!-- Generator: Sketch 55.1 (78136) - https://sketchapp.com -->
    <title>icon-angle-right</title>
    <desc>Created with Sketch.</desc>
    <g id="Page-1" stroke="none" stroke-width="1" fill="none" fill-rule="evenodd">
        <g id="Desktop-HD-Copy-2" transform="translate(-861.000000, -916.000000)" fill="#464555">
            <path d="M861.623309,928 C861.535723,928 861.455471,927.966521 861.379754,927.925089 C861.377184,927.923704 861.374576,927.922639 861.371854,927.921929 C860.972708,927.820391 860.875558,927.250959 861.177365,926.973751 C861.50998,926.66832 861.832049,926.352769 862.160733,926.043503 C863.546724,924.739231 864.932109,923.434391 866.322485,922.134237 C866.43623,922.027834 866.434,921.970533 866.321578,921.865302 C864.633705,920.285136 862.950292,918.70071 861.266123,917.11703 C861.107811,916.968166 860.979815,916.810639 861.002647,916.577278 C861.025101,916.347645 861.115711,916.175243 861.35318,916.084568 C861.357981,916.082722 861.36263,916.080272 861.367015,916.077396 C861.439972,916.029538 861.524836,916 861.613859,916 L861.655667,916 C861.757731,916 861.856204,916.035503 861.931769,916.099834 C862.141189,916.278095 862.353445,916.453657 862.553414,916.640828 C864.276556,918.253905 865.996107,919.870355 867.717133,921.485385 C867.874991,921.633503 868.010245,921.781408 867.999358,922.018391 C867.991269,922.194237 867.917367,922.323325 867.795079,922.438462 C866.902246,923.27871 866.008166,924.117751 865.114577,924.95729 C864.114615,925.896734 863.11556,926.836994 862.113556,927.774521 C862.055418,927.828947 861.98953,927.876024 861.923188,927.92271 C861.851933,927.972876 861.765254,928 861.676194,928 L861.623309,928 Z" id="icon-angle-right"></path>
        </g>
    </g>
</svg>