<?xml version="1.0" encoding="UTF-8"?>
<svg width="7px" height="12px" viewBox="0 0 7 12" version="1.1" xmlns="http://www.w3.org/2000/svg" xmlns:xlink="http://www.w3.org/1999/xlink">
    <!-- Generator: Sketch 55.1 (78136) - https://sketchapp.com -->
    <title>icon-angle-left</title>
    <desc>Created with Sketch.</desc>
    <g id="Page-1" stroke="none" stroke-width="1" fill="none" fill-rule="evenodd">
        <g id="Desktop-HD-Copy-2" transform="translate(-619.000000, -916.000000)" fill="#464555">
            <path d="M619.623309,928 C619.535723,928 619.455471,927.966521 619.379754,927.925089 C619.377184,927.923704 619.374576,927.922639 619.371854,927.921929 C618.972708,927.820391 618.875558,927.250959 619.177365,926.973751 C619.50998,926.66832 619.832049,926.352769 620.160733,926.043503 C621.546724,924.739231 622.932109,923.434391 624.322485,922.134237 C624.43623,922.027834 624.434,921.970533 624.321578,921.865302 C622.633705,920.285136 620.950292,918.70071 619.266123,917.11703 C619.107811,916.968166 618.979815,916.810639 619.002647,916.577278 C619.025101,916.347645 619.115711,916.175243 619.35318,916.084568 C619.357981,916.082722 619.36263,916.080272 619.367015,916.077396 C619.439972,916.029538 619.524836,916 619.613859,916 L619.655667,916 C619.757731,916 619.856204,916.035503 619.931769,916.099834 C620.141189,916.278095 620.353445,916.453657 620.553414,916.640828 C622.276556,918.253905 623.996107,919.870355 625.717133,921.485385 C625.874991,921.633503 626.010245,921.781408 625.999358,922.018391 C625.991269,922.194237 625.917367,922.323325 625.795079,922.438462 C624.902246,923.27871 624.008166,924.117751 623.114577,924.95729 C622.114615,925.896734 621.11556,926.836994 620.113556,927.774521 C620.055418,927.828947 619.98953,927.876024 619.923188,927.92271 C619.851933,927.972876 619.765254,928 619.676194,928 L619.623309,928 Z" id="icon-angle-left" transform="translate(622.500000, 922.000000) scale(-1, 1) translate(-622.500000, -922.000000) "></path>
        </g>
    </g>
</svg>