<?xml version="1.0" encoding="UTF-8"?>
<svg width="9px" height="6px" viewBox="0 0 9 6" version="1.1" xmlns="http://www.w3.org/2000/svg" xmlns:xlink="http://www.w3.org/1999/xlink">
    <!-- Generator: Sketch 55.1 (78136) - https://sketchapp.com -->
    <title>icon-angle-down</title>
    <desc>Created with Sketch.</desc>
    <g id="Page-1" stroke="none" stroke-width="1" fill="none" fill-rule="evenodd">
        <g id="Desktop-HD-Copy-2" transform="translate(-1296.000000, -29.000000)" fill="#464555" fill-rule="nonzero">
            <path d="M1305,29.50797 C1305,29.6252638 1304.9609,29.7347364 1304.88271,29.836391 L1300.88301,34.7978948 C1300.78135,34.9308277 1300.64842,34.9972933 1300.48421,34.9972933 C1300.32,34.9972933 1300.18707,34.9308277 1300.08541,34.7978948 L1296.10917,29.8481203 C1296.02316,29.7386461 1295.98797,29.6135346 1296.00361,29.472782 C1296.01925,29.3320294 1296.0818,29.2186471 1296.19128,29.1326316 C1296.30075,29.0466162 1296.42586,29.0114285 1296.56662,29.0270677 C1296.70737,29.0427069 1296.82075,29.1052627 1296.90677,29.2147369 L1300.48421,33.6601504 L1304.08511,29.1912782 C1304.17113,29.081804 1304.28451,29.0192483 1304.42526,29.0036091 C1304.56602,28.9879699 1304.69113,29.0231575 1304.8006,29.109173 C1304.93353,29.2108276 1305,29.3437586 1305,29.50797 Z" id="icon-angle-down"></path>
        </g>
    </g>
</svg>