<?xml version="1.0" encoding="UTF-8"?>
<svg width="17px" height="14px" viewBox="0 0 17 14" version="1.1" xmlns="http://www.w3.org/2000/svg" xmlns:xlink="http://www.w3.org/1999/xlink">
    <!-- Generator: Sketch 55.1 (78136) - https://sketchapp.com -->
    <title>icon-twiter</title>
    <desc>Created with Sketch.</desc>
    <g id="Page-1" stroke="none" stroke-width="1" fill="none" fill-rule="evenodd">
        <g id="Desktop-HD-Copy-2" transform="translate(-1102.000000, -977.000000)" fill="#464555">
            <path d="M1107.08958,987.852247 C1105.28483,987.750846 1104.18896,986.461474 1103.89406,985.417696 C1104.40199,985.481885 1104.90062,985.490258 1105.42809,985.342343 C1104.59828,985.144192 1103.9322,984.74231 1103.42054,984.102275 C1102.90796,983.460379 1102.65213,982.728246 1102.65306,981.874246 C1103.14332,982.124492 1103.63358,982.28078 1104.17686,982.297525 C1102.63724,981.010013 1102.29304,979.470393 1103.13122,977.626572 C1105.04203,979.872276 1107.43193,981.092808 1110.32511,981.29561 C1110.31115,980.933729 1110.27766,980.592315 1110.28976,980.251831 C1110.33999,978.840591 1111.43773,977.486099 1112.80896,977.134452 C1114.10485,976.80048 1115.24538,977.087937 1116.22124,978.005197 C1116.29381,978.072177 1116.35148,978.095434 1116.45381,978.072177 C1117.12455,977.921471 1117.76086,977.68611 1118.3609,977.353068 C1118.40834,977.32702 1118.45764,977.302833 1118.53207,977.265622 C1118.41113,977.677737 1118.22693,978.032175 1117.96459,978.333587 C1117.70598,978.630347 1117.40549,978.892687 1117.10966,979.183866 C1117.4241,979.115955 1117.74319,979.062929 1118.05297,978.977343 C1118.3609,978.892687 1118.66045,978.776402 1119,978.661977 C1118.85488,978.854546 1118.74603,979.040602 1118.59905,979.189448 C1118.20461,979.585749 1117.79807,979.969025 1117.38875,980.351372 C1117.31433,980.421143 1117.27339,980.480681 1117.27525,980.587664 C1117.31247,983.412935 1116.36172,985.863301 1114.43045,987.915507 C1113.01642,989.416984 1111.26469,990.324011 1109.23574,990.685891 C1107.41239,991.01149 1105.62252,990.875669 1103.87917,990.236564 C1103.24658,990.003993 1102.64748,989.706302 1102.07535,989.350004 C1102.05954,989.340701 1102.04372,989.325816 1102,989.291396 C1103.90615,989.462568 1105.59741,989.001147 1107.08958,987.852247" id="icon-twiter"></path>
        </g>
    </g>
</svg>