<?xml version="1.0" encoding="UTF-8"?>
<svg width="60px" height="59px" viewBox="0 0 60 59" version="1.1" xmlns="http://www.w3.org/2000/svg" xmlns:xlink="http://www.w3.org/1999/xlink">
    <!-- Generator: Sketch 55.1 (78136) - https://sketchapp.com -->
    <title>reissue</title>
    <desc>Created with Sketch.</desc>
    <g id="Page-1" stroke="none" stroke-width="1" fill="none" fill-rule="evenodd">
        <g id="47.-Reissue-3" transform="translate(-691.000000, -380.000000)" fill="#00BAD1" fill-rule="nonzero">
            <g id="reissue" transform="translate(691.000000, 380.000000)">
                <path d="M59.457,35.235 C57.704,32.793 55.927,32.754 51.478,35.095 L42.855,40.367 C41.577,41.047 38.954,41.251 36.41,41.294 C36.862,40.353 36.66,39.23 35.806,37.954 C35.015,36.774 33.938,35.836 32.688,35.195 C34.76,33.511 36,31.004 36,28.249 C36,23.287 31.963,19.249 27,19.249 C22.037,19.249 18,23.287 18,28.249 C18,29.73 18.368,31.144 19.027,32.405 C19.014,32.396 19,32.388 18.988,32.378 C15.398,29.671 9.4,29.289 7.001,29.248 L7.001,26.221 L0,26.221 L0,58.249 L7,58.249 L7,55.249 L20,55.249 C22.04,55.249 24.098,55.093 26.116,54.787 L39.079,52.816 C39.551,52.81 40.029,52.754 40.455,52.658 C41.649,52.49 42.79,51.92 43.757,51.008 L58.914,39.204 L58.937,39.185 C60.118,38.208 60.346,36.472 59.457,35.235 Z M23.17,34.098 C21.181,32.796 20,30.624 20,28.249 C20,24.389 23.141,21.249 27,21.249 C30.859,21.249 34,24.389 34,28.249 C34,30.835 32.609,33.158 30.348,34.388 C30.224,34.364 30.098,34.352 29.973,34.333 C29.848,34.314 29.725,34.292 29.598,34.278 C29.273,34.242 28.946,34.22 28.618,34.22 L24.718,34.22 C24.215,34.221 23.695,34.18 23.17,34.098 Z M5,56.249 L2,56.249 L2,28.221 L5,28.221 L5,29.282 L5,55.25 L5,56.249 Z M57.672,37.637 L42.489,49.46 L42.412,49.527 C41.742,50.168 40.969,50.566 40.078,50.695 C39.714,50.776 39.351,50.817 39,50.817 L25.815,52.81 C23.896,53.102 21.939,53.25 20,53.25 L7,53.25 L7,31.251 C9.217,31.297 14.706,31.655 17.784,33.975 C19.12,34.983 20.721,35.667 22.429,35.995 L22.444,36.004 L22.634,36.037 C22.644,36.039 22.653,36.039 22.663,36.041 C22.991,36.097 23.323,36.142 23.658,36.171 C23.669,36.172 23.68,36.174 23.69,36.175 C24.03,36.204 24.372,36.221 24.717,36.221 L28.617,36.221 C29.167,36.221 29.717,36.286 30.251,36.414 L30.315,36.43 C31.888,36.82 33.255,37.745 34.142,39.068 C34.563,39.695 34.729,40.216 34.588,40.461 C34.321,40.923 33.082,41.207 31.825,41.262 C31.416,41.255 31.043,41.25 30.716,41.25 L21,41.25 C17.869,41.25 16,42.745 16,45.25 C16,45.802 16.447,46.25 17,46.25 C17.553,46.25 18,45.802 18,45.25 C18,44.755 18,43.25 21,43.25 L30.694,43.25 C30.921,43.264 31.357,43.283 31.906,43.263 C32.078,43.266 32.256,43.269 32.438,43.272 C37.131,43.359 41.532,43.335 43.846,42.103 L52.464,36.833 C56.588,34.666 57.003,35.247 57.831,36.401 C58.108,36.785 58.037,37.326 57.672,37.637 Z" id="Shape"></path>
                <path d="M32,28.249 C32,25.492 29.757,23.249 27,23.249 C24.243,23.249 22,25.492 22,28.249 C22,31.006 24.243,33.249 27,33.249 C29.757,33.249 32,31.006 32,28.249 Z M27,31.249 C25.346,31.249 24,29.903 24,28.249 C24,26.595 25.346,25.249 27,25.249 C28.654,25.249 30,26.595 30,28.249 C30,29.903 28.654,31.249 27,31.249 Z" id="Shape"></path>
                <path d="M42,18.249 C46.963,18.249 51,14.211 51,9.249 C51,4.287 46.963,0.249 42,0.249 C37.037,0.249 33,4.287 33,9.249 C33,14.211 37.037,18.249 42,18.249 Z M42,2.249 C45.859,2.249 49,5.389 49,9.249 C49,13.109 45.859,16.249 42,16.249 C38.141,16.249 35,13.109 35,9.249 C35,5.389 38.141,2.249 42,2.249 Z" id="Shape"></path>
                <path d="M42,14.249 C44.757,14.249 47,12.006 47,9.249 C47,6.492 44.757,4.249 42,4.249 C39.243,4.249 37,6.492 37,9.249 C37,12.006 39.243,14.249 42,14.249 Z M42,6.249 C43.654,6.249 45,7.595 45,9.249 C45,10.903 43.654,12.249 42,12.249 C40.346,12.249 39,10.903 39,9.249 C39,7.595 40.346,6.249 42,6.249 Z" id="Shape"></path>
            </g>
        </g>
    </g>
</svg>