<?xml version="1.0" encoding="UTF-8"?>
<svg width="9px" height="19px" viewBox="0 0 9 19" version="1.1" xmlns="http://www.w3.org/2000/svg" xmlns:xlink="http://www.w3.org/1999/xlink">
    <!-- Generator: Sketch 55.1 (78136) - https://sketchapp.com -->
    <title>icon-facebook</title>
    <desc>Created with Sketch.</desc>
    <g id="Page-1" stroke="none" stroke-width="1" fill="none" fill-rule="evenodd">
        <g id="Desktop-HD-Copy-2" transform="translate(-1061.000000, -974.000000)" fill="#464555">
            <path d="M1069.98332,974.125189 C1069.9583,975.095074 1069.93328,976.056619 1069.90827,977.028172 L1069.81319,977.028172 C1069.18356,977.026505 1068.55309,977.021501 1067.92346,977.023169 C1067.76751,977.023169 1067.6099,977.032342 1067.45728,977.056527 C1066.97109,977.131582 1066.71256,977.395945 1066.65002,977.877135 C1066.63167,978.014737 1066.62166,978.155674 1066.62083,978.294944 C1066.61749,979.029655 1066.61916,979.764366 1066.61916,980.499077 C1066.61916,980.519926 1066.62083,980.540774 1066.6225,980.570797 L1070,980.570797 C1069.94996,981.611568 1069.89993,982.642331 1069.85072,983.6806 L1066.6225,983.6806 L1066.6225,992.19941 L1063.28586,992.19941 L1063.28586,983.687272 L1061,983.687272 L1061,980.571631 L1063.28419,980.571631 L1063.28419,980.479062 C1063.28419,979.599244 1063.27252,978.720259 1063.28836,977.840441 C1063.30421,976.922261 1063.58358,976.08831 1064.19737,975.380285 C1064.72192,974.774003 1065.39742,974.40623 1066.16883,974.196909 C1066.77178,974.034288 1067.38973,973.990089 1068.01186,974.001764 C1068.64233,974.013439 1069.27113,974.043462 1069.89742,974.111846 C1069.92411,974.115181 1069.94913,974.120185 1069.98332,974.125189" id="icon-facebook"></path>
        </g>
    </g>
</svg>