<?xml version="1.0" encoding="UTF-8"?>
<svg width="14px" height="17px" viewBox="0 0 14 17" version="1.1" xmlns="http://www.w3.org/2000/svg" xmlns:xlink="http://www.w3.org/1999/xlink">
    <!-- Generator: Sketch 55.1 (78136) - https://sketchapp.com -->
    <title>icon-github</title>
    <desc>Created with Sketch.</desc>
    <g id="Page-1" stroke="none" stroke-width="1" fill="none" fill-rule="evenodd">
        <g id="Desktop-HD-Copy-2" transform="translate(-1193.000000, -975.000000)" fill="#464555">
            <path d="M1198.02649,976.682988 C1198.89386,976.14589 1199.86375,976.15244 1200.82717,976.152263 C1201.79164,976.152086 1202.76344,976.141465 1203.61667,976.665816 C1203.90149,976.3477 1204.14999,975.992055 1204.47287,975.731118 C1204.80921,975.45956 1205.21417,975.273151 1205.59573,975.061959 C1205.76774,974.966542 1205.87513,975.031334 1205.93748,975.231019 C1206.18999,976.037019 1206.23417,976.839302 1205.95302,977.648843 C1205.92316,977.734523 1205.9167,977.884818 1205.96699,977.934209 C1206.6545,978.608324 1206.84484,979.481949 1206.92639,980.390447 C1207.00358,981.248139 1207.06627,982.111318 1206.86405,982.962283 C1206.49175,984.528257 1205.47209,985.48703 1204.01587,986.00554 C1203.55136,986.171059 1203.06101,986.262051 1202.57449,986.389156 C1202.96322,987.028928 1203.08877,987.7342 1203.07812,988.481251 C1203.06293,989.540575 1203.07445,990.600077 1203.07463,991.659579 L1203.07463,992 L1198.61236,992 L1198.61236,989.823817 C1198.04552,989.823817 1197.5061,989.878695 1196.98186,989.812311 C1195.95104,989.681488 1195.21428,989.094292 1194.72934,988.162427 C1194.49307,987.708709 1194.23724,987.262249 1193.94945,986.841103 C1193.78146,986.595391 1193.5382,986.400485 1193.318,986.194958 C1193.22684,986.110162 1193.10705,986.057232 1193,985.989785 C1193.0234,985.943935 1193.0468,985.898262 1193.0702,985.852766 C1193.18476,985.82816 1193.29879,985.785142 1193.41404,985.781779 C1194.25977,985.757703 1194.82608,986.20434 1195.23803,986.907842 C1195.77868,987.831034 1196.57777,988.288469 1197.63951,988.265279 C1197.72683,988.263332 1197.81466,988.251471 1197.90128,988.238194 C1198.53186,988.141007 1198.51545,988.136581 1198.66213,987.527611 C1198.75573,987.138684 1198.90626,986.76392 1199.04142,986.352511 C1198.90853,986.326488 1198.7243,986.29126 1198.54042,986.254439 C1197.85483,986.117774 1197.20539,985.8841 1196.61165,985.505795 C1195.46644,984.776093 1194.82853,983.714467 1194.71467,982.360925 C1194.62875,981.343379 1194.6773,980.322646 1194.92807,979.323687 C1195.05345,978.825004 1195.27732,978.377659 1195.64439,978.017765 C1195.76837,977.896148 1195.78357,977.79542 1195.72419,977.633087 C1195.40305,976.755391 1195.48111,975.889734 1195.83211,975 C1196.84897,975.210307 1197.46314,975.902125 1198.02649,976.682988 Z" id="icon-github"></path>
        </g>
    </g>
</svg>