<?xml version="1.0" encoding="UTF-8"?>
<svg width="14px" height="14px" viewBox="0 0 14 14" version="1.1" xmlns="http://www.w3.org/2000/svg" xmlns:xlink="http://www.w3.org/1999/xlink">
    <!-- Generator: Sketch 55.1 (78136) - https://sketchapp.com -->
    <title>icon-plus</title>
    <desc>Created with Sketch.</desc>
    <g id="Page-1" stroke="none" stroke-width="1" fill="none" fill-rule="evenodd">
        <g id="Desktop-HD-Copy-2" transform="translate(-1024.000000, -24.000000)" fill="#464555" fill-rule="nonzero" stroke="#464555" stroke-width="0.6">
            <path d="M1034.01172,25.5585938 C1034.9336,26.0898464 1035.66211,26.8164016 1036.19727,27.7382812 C1036.73242,28.6601609 1037,29.6640571 1037,30.75 C1037,31.8359429 1036.73242,32.8398391 1036.19727,33.7617188 C1035.66211,34.6835984 1034.9336,35.4121067 1034.01172,35.9472656 C1033.08984,36.4824246 1032.08594,36.75 1031,36.75 C1029.91406,36.75 1028.91016,36.4824246 1027.98828,35.9472656 C1027.0664,35.4121067 1026.33789,34.6835984 1025.80273,33.7617188 C1025.26758,32.8398391 1025,31.8359429 1025,30.75 C1025,29.6640571 1025.26758,28.6601609 1025.80273,27.7382812 C1026.33789,26.8164016 1027.0664,26.0878933 1027.98828,25.5527344 C1028.91016,25.0175754 1029.91406,24.75 1031,24.75 C1032.08594,24.75 1033.08984,25.0195286 1034.01172,25.5585938 Z M1034.64453,34.3945312 C1035.1211,33.9179664 1035.49219,33.3710968 1035.75781,32.7539062 C1036.02344,32.1210906 1036.15625,31.4531285 1036.15625,30.75 C1036.15625,30.0468715 1036.01953,29.3789094 1035.74609,28.7460938 C1035.48828,28.1289032 1035.1211,27.5820336 1034.64453,27.1054688 C1034.16797,26.6289039 1033.6211,26.2578138 1033.00391,25.9921875 C1032.37109,25.7265612 1031.70313,25.59375 1031,25.59375 C1030.29687,25.59375 1029.62891,25.7304674 1028.99609,26.0039062 C1028.3789,26.26172 1027.83203,26.6289039 1027.35547,27.1054688 C1026.8789,27.5820336 1026.50781,28.1289032 1026.24219,28.7460938 C1025.97656,29.3789094 1025.84375,30.0468715 1025.84375,30.75 C1025.84375,31.4531285 1025.98047,32.1210906 1026.25391,32.7539062 C1026.51172,33.3710968 1026.8789,33.9179664 1027.35547,34.3945312 C1027.83203,34.8710961 1028.3789,35.2421862 1028.99609,35.5078125 C1029.62891,35.7734388 1030.29687,35.90625 1031,35.90625 C1031.70313,35.90625 1032.37109,35.7695326 1033.00391,35.4960938 C1033.6211,35.23828 1034.16797,34.8710961 1034.64453,34.3945312 Z M1033.57812,30.328125 C1033.69531,30.328125 1033.79492,30.3710933 1033.87695,30.4570312 C1033.95898,30.5429692 1034,30.6406245 1034,30.75 C1034,30.8671881 1033.95898,30.9667965 1033.87695,31.0488281 C1033.79492,31.1308598 1033.69531,31.171875 1033.57812,31.171875 L1031.42188,31.171875 L1031.42188,33.3164062 C1031.42188,33.4335943 1031.38086,33.5332027 1031.29883,33.6152344 C1031.2168,33.697266 1031.11719,33.7382812 1031,33.7382812 C1030.89062,33.7382812 1030.79297,33.697266 1030.70703,33.6152344 C1030.62109,33.5332027 1030.57812,33.4335943 1030.57812,33.3164062 L1030.57812,31.171875 L1028.42188,31.171875 C1028.30469,31.171875 1028.20508,31.1308598 1028.12305,31.0488281 C1028.04102,30.9667965 1028,30.8671881 1028,30.75 C1028,30.6406245 1028.04102,30.5429692 1028.12305,30.4570312 C1028.20508,30.3710933 1028.30469,30.328125 1028.42188,30.328125 L1030.57812,30.328125 L1030.57812,28.1835938 C1030.57812,28.0664057 1030.62109,27.9667973 1030.70703,27.8847656 C1030.79297,27.802734 1030.89062,27.7617188 1031,27.7617188 C1031.11719,27.7617188 1031.2168,27.802734 1031.29883,27.8847656 C1031.38086,27.9667973 1031.42188,28.0664057 1031.42188,28.1835938 L1031.42188,30.328125 L1033.57812,30.328125 Z" id="icon-plus"></path>
        </g>
    </g>
</svg>